<svg width="40" height="10" viewBox="0 0 40 10" fill="none" xmlns="http://www.w3.org/2000/svg">
<path d="M39.4308 2.68375C39.4349 2.44139 39.334 2.20891 39.1552 2.04638C38.9764 1.88343 38.7327 1.8032 38.4965 1.83282L34.4368 2.29449C33.9757 2.34675 33.6443 2.7644 33.6968 3.22689C33.7485 3.68856 34.157 4.0198 34.6254 3.96919L36.4215 3.76494C35.3176 5.6372 33.947 5.52147 33.8289 5.50604C32.9807 5.4579 32.4541 4.98141 31.7871 4.3786C31.0177 3.68239 30.0596 2.81583 28.4567 2.70679C27.1007 2.61256 26.0089 3.317 25.0532 3.93709C24.1533 4.52262 23.365 5.02667 22.4462 4.9378C21.5045 4.84645 20.6686 4.07823 19.7843 3.26516C18.6794 2.25047 17.4415 1.09711 15.7254 1.21767C14.4851 1.30326 13.262 2.0328 12.1882 3.3277C11.7658 3.83669 11.3942 4.38025 11.0341 4.9057C10.3778 5.86443 9.75766 6.77009 8.90863 7.38277C7.31969 8.53119 4.93668 8.40034 3.48145 7.08322C2.02703 5.76733 1.65215 3.40177 2.6275 1.69745C2.85883 1.29379 2.71938 0.778628 2.31742 0.546968C1.91383 0.313663 1.40113 0.453975 1.17063 0.858042C-0.18371 3.2236 0.337188 6.50798 2.35598 8.33451C3.45356 9.32821 4.93258 9.83597 6.40832 9.83556C7.64699 9.83556 8.88402 9.47799 9.89055 8.7505C10.9766 7.96624 11.71 6.89558 12.4188 5.85991C12.7731 5.3431 13.107 4.85468 13.4794 4.40576C14.0192 3.75563 14.8666 2.96602 15.8411 2.89895C16.8222 2.82817 17.6704 3.60874 18.649 4.50781C19.6498 5.42745 20.7843 6.46971 22.2838 6.61496C23.8039 6.76597 24.9498 6.01256 25.967 5.35174C26.8079 4.8053 27.5346 4.33293 28.3435 4.38807C29.3664 4.45761 29.9669 5.00116 30.6625 5.63031C31.4279 6.3224 32.2949 7.10667 33.6599 7.18115C33.7639 7.19843 36.1036 7.49608 37.7953 4.73962C37.8324 5.53479 37.8817 6.22869 37.9042 6.52567C37.9379 6.968 38.3062 7.30459 38.7409 7.30459C38.7623 7.30459 38.7836 7.30377 38.8057 7.30212C39.2676 7.26673 39.6146 6.86226 39.5793 6.39811C39.5391 5.86526 39.4095 4.02309 39.4308 2.68375Z" fill="#FAFAFA"/>
</svg>
