<svg width="16" height="20" viewBox="0 0 16 20" fill="none" xmlns="http://www.w3.org/2000/svg">
<path d="M12.5152 7.16127C12.7789 6.83124 13.0023 6.47094 13.1806 6.088C14.0393 4.95175 14.8814 3.82123 15.7071 2.69644C15.8687 2.48884 15.968 2.23963 15.9935 1.9778C16.0189 1.71597 15.9695 1.45229 15.851 1.21746C15.7091 0.957155 15.4996 0.739977 15.2446 0.58885C14.9896 0.437724 14.6985 0.358256 14.402 0.358836C14.155 0.35794 13.9112 0.415878 13.691 0.527858C13.4708 0.639838 13.2804 0.802642 13.1356 1.0028C11.8197 2.80162 10.4524 4.61975 9.0571 6.41857L5.69989 1.09725C5.56516 0.876765 5.37584 0.694749 5.15024 0.568784C4.92463 0.442819 4.67035 0.377162 4.41195 0.378155C4.1259 0.380219 3.84542 0.457462 3.59865 0.602137C3.35187 0.746812 3.14748 0.953832 3.00596 1.20243C2.87827 1.43243 2.81651 1.69321 2.8275 1.95605C2.83848 2.21889 2.92177 2.4736 3.06821 2.69214L5.38005 6.35417L7.00714 8.93004L6.49197 9.50102C5.28346 10.8491 4.20803 12.2443 2.91795 13.5215C1.90692 14.5261 0.447264 15.7282 0.0759101 17.1685C-0.181677 18.1731 0.226169 19.2464 1.14919 19.5426C1.89404 20.0299 3.0403 19.8281 3.90107 19.1584C5.61832 17.8211 6.61432 15.8269 7.74341 14.0195C8.09759 13.4507 8.48397 12.9055 8.88323 12.3667C9.07642 12.7702 9.27176 13.1738 9.47354 13.573C10.3043 15.2066 11.238 16.8873 12.4959 18.2246C13.4232 19.2163 15.0975 19.2056 15.5011 17.7803C15.5902 17.5632 15.6247 17.3275 15.6015 17.094C15.5783 16.8604 15.4981 16.6362 15.368 16.4408L11.0255 9.54395C11.3604 9.08459 11.6845 8.62093 11.985 8.1401C12.1798 7.82392 12.3568 7.49713 12.5152 7.16127ZM15.1791 2.10828C15.1674 2.13324 15.1545 2.1576 15.1404 2.18126C15.1533 2.15336 15.1684 2.12975 15.1791 2.10828ZM4.41195 1.1316H4.42483C4.46342 1.12869 4.50216 1.12869 4.54075 1.1316C4.49718 1.1279 4.45338 1.1279 4.40981 1.1316H4.41195Z" fill="#FAFAFA"/>
</svg>
