<svg width="30" height="16" viewBox="0 0 30 16" fill="none" xmlns="http://www.w3.org/2000/svg">
<g opacity="0.75">
<path d="M27.1686 5.595C27.3829 5.32355 27.5644 5.0272 27.7093 4.71223C28.4069 3.77767 29.0912 2.84782 29.762 1.92268C29.8933 1.75194 29.974 1.54696 29.9947 1.3316C30.0154 1.11625 29.9752 0.899374 29.8789 0.706224C29.7637 0.492124 29.5934 0.313496 29.3862 0.189195C29.179 0.0648933 28.9425 -0.000468692 28.7016 8.42078e-06C28.5009 -0.000728605 28.3029 0.0469254 28.124 0.139029C27.945 0.231132 27.7903 0.365038 27.6726 0.52967C26.6035 2.00919 25.4925 3.5046 24.3589 4.98412L21.6312 0.607354C21.5217 0.426004 21.3679 0.276296 21.1846 0.17269C21.0013 0.0690841 20.7947 0.0150814 20.5847 0.0158983C20.3523 0.017596 20.1244 0.0811283 19.9239 0.200123C19.7234 0.319118 19.5573 0.489391 19.4423 0.693865C19.3386 0.883039 19.2884 1.09753 19.2973 1.31371C19.3063 1.5299 19.3739 1.7394 19.4929 1.91915L21.3713 4.93116L22.6933 7.0498L22.2747 7.51944C21.2928 8.62819 20.419 9.77579 19.3708 10.8263C18.5494 11.6526 17.3634 12.6413 17.0617 13.8259C16.8524 14.6522 17.1838 15.535 17.9337 15.7786C18.5389 16.1794 19.4702 16.0134 20.1696 15.4626C21.5649 14.3627 22.3741 12.7225 23.2915 11.2359C23.5793 10.768 23.8932 10.3196 24.2176 9.87643C24.3746 10.2084 24.5333 10.5403 24.6972 10.8687C25.3722 12.2122 26.1309 13.5947 27.1529 14.6946C27.9063 15.5103 29.2667 15.5014 29.5946 14.3291C29.667 14.1505 29.695 13.9567 29.6762 13.7646C29.6573 13.5725 29.5922 13.3881 29.4865 13.2274L25.9582 7.55475C26.2303 7.17692 26.4936 6.79557 26.7378 6.40009C26.8961 6.14002 27.0399 5.87124 27.1686 5.595ZM29.333 1.43892C29.3235 1.45945 29.3131 1.47949 29.3016 1.49895C29.3121 1.476 29.3243 1.45658 29.333 1.43892ZM20.5847 0.635602H20.5952C20.6265 0.633215 20.658 0.633215 20.6894 0.635602C20.654 0.632564 20.6184 0.632564 20.583 0.635602H20.5847Z" fill="#09090B"/>
<path d="M10.1686 5.595C10.3829 5.32355 10.5644 5.0272 10.7093 4.71223C11.4069 3.77767 12.0912 2.84782 12.762 1.92268C12.8933 1.75194 12.974 1.54696 12.9947 1.3316C13.0154 1.11625 12.9752 0.899374 12.8789 0.706224C12.7637 0.492124 12.5934 0.313496 12.3862 0.189195C12.179 0.0648933 11.9425 -0.000468692 11.7016 8.42078e-06C11.5009 -0.000728605 11.3029 0.0469254 11.124 0.139029C10.945 0.231132 10.7903 0.365038 10.6726 0.52967C9.60352 2.00919 8.49255 3.5046 7.3589 4.98412L4.63116 0.607354C4.52169 0.426004 4.36787 0.276296 4.18457 0.17269C4.00126 0.0690841 3.79466 0.0150814 3.58471 0.0158983C3.3523 0.017596 3.12441 0.0811283 2.9239 0.200123C2.7234 0.319118 2.55732 0.489391 2.44234 0.693865C2.33859 0.883039 2.28842 1.09753 2.29734 1.31371C2.30626 1.5299 2.37394 1.7394 2.49292 1.91915L4.37129 4.93116L5.6933 7.0498L5.27472 7.51944C4.29281 8.62819 3.41903 9.77579 2.37084 10.8263C1.54937 11.6526 0.363402 12.6413 0.0616769 13.8259C-0.147612 14.6522 0.183762 15.535 0.933716 15.7786C1.53891 16.1794 2.47025 16.0134 3.16962 15.4626C4.56488 14.3627 5.37414 12.7225 6.29152 11.2359C6.57929 10.768 6.89323 10.3196 7.21763 9.87643C7.37459 10.2084 7.5333 10.5403 7.69725 10.8687C8.37221 12.2122 9.13088 13.5947 10.1529 14.6946C10.9063 15.5103 12.2667 15.5014 12.5946 14.3291C12.667 14.1505 12.695 13.9567 12.6762 13.7646C12.6573 13.5725 12.5922 13.3881 12.4865 13.2274L8.95822 7.55475C9.23029 7.17692 9.49365 6.79557 9.73782 6.40009C9.89606 6.14002 10.0399 5.87124 10.1686 5.595ZM12.333 1.43892C12.3235 1.45945 12.3131 1.47949 12.3016 1.49895C12.3121 1.476 12.3243 1.45658 12.333 1.43892ZM3.58471 0.635602H3.59518C3.62653 0.633215 3.65801 0.633215 3.68936 0.635602C3.65396 0.632564 3.61837 0.632564 3.58297 0.635602H3.58471Z" fill="#09090B"/>
</g>
</svg>
