<svg width="16" height="102" viewBox="0 0 16 102" fill="none" xmlns="http://www.w3.org/2000/svg">
<g opacity="0.85">
<path d="M12.5152 6.80245C12.7789 6.47242 13.0023 6.11211 13.1806 5.72917C14.0393 4.59293 14.8814 3.46241 15.7071 2.33761C15.8687 2.13002 15.968 1.8808 15.9935 1.61897C16.0189 1.35714 15.9695 1.09347 15.851 0.858633C15.7091 0.598329 15.4996 0.381151 15.2446 0.230024C14.9896 0.0788979 14.6985 -0.00056984 14.402 1.02381e-05C14.155 -0.000885845 13.9112 0.0570523 13.691 0.169032C13.4708 0.281012 13.2804 0.443816 13.1356 0.643977C11.8197 2.44279 10.4524 4.26093 9.0571 6.05974L5.69989 0.738426C5.56516 0.51794 5.37584 0.335923 5.15024 0.209958C4.92463 0.0839931 4.67035 0.0183361 4.41195 0.0193292C4.1259 0.0213933 3.84542 0.0986365 3.59865 0.243311C3.35187 0.387986 3.14748 0.595006 3.00596 0.843607C2.87827 1.07361 2.81651 1.33438 2.8275 1.59722C2.83848 1.86006 2.92177 2.11477 3.06821 2.33332L5.38005 5.99534L7.00714 8.57121L6.49197 9.1422C5.28346 10.4902 4.20803 11.8855 2.91795 13.1627C1.90692 14.1673 0.447264 15.3694 0.0759101 16.8097C-0.181677 17.8143 0.226169 18.8876 1.14919 19.1838C1.89404 19.6711 3.0403 19.4693 3.90107 18.7996C5.61832 17.4622 6.61432 15.4681 7.74341 13.6607C8.09759 13.0919 8.48397 12.5466 8.88323 12.0078C9.07642 12.4114 9.27176 12.815 9.47354 13.2142C10.3043 14.8477 11.238 16.5285 12.4959 17.8658C13.4232 18.8575 15.0975 18.8468 15.5011 17.4215C15.5902 17.2044 15.6247 16.9687 15.6015 16.7352C15.5783 16.5016 15.4981 16.2773 15.368 16.082L11.0255 9.18513C11.3604 8.72576 11.6845 8.26211 11.985 7.78128C12.1798 7.46509 12.3568 7.13831 12.5152 6.80245ZM15.1791 1.74945C15.1674 1.77442 15.1545 1.79877 15.1404 1.82244C15.1533 1.79453 15.1684 1.77092 15.1791 1.74945ZM4.41195 0.772771H4.42483C4.46342 0.769869 4.50216 0.769869 4.54075 0.772771C4.49718 0.769076 4.45338 0.769076 4.40981 0.772771H4.41195Z" fill="#FAFAFA"/>
<path d="M12.5152 34.2554C12.7789 33.9254 13.0023 33.5651 13.1806 33.1821C14.0393 32.0459 14.8814 30.9153 15.7071 29.7906C15.8687 29.583 15.968 29.3337 15.9935 29.0719C16.0189 28.8101 15.9695 28.5464 15.851 28.3116C15.7091 28.0513 15.4996 27.8341 15.2446 27.683C14.9896 27.5318 14.6985 27.4524 14.402 27.453C14.155 27.4521 13.9112 27.51 13.691 27.622C13.4708 27.734 13.2804 27.8968 13.1356 28.0969C11.8197 29.8957 10.4524 31.7139 9.0571 33.5127L5.69989 28.1914C5.56516 27.9709 5.37584 27.7889 5.15024 27.6629C4.92463 27.5369 4.67035 27.4713 4.41195 27.4723C4.1259 27.4743 3.84542 27.5516 3.59865 27.6963C3.35187 27.8409 3.14748 28.0479 3.00596 28.2965C2.87827 28.5265 2.81651 28.7873 2.8275 29.0502C2.83848 29.313 2.92177 29.5677 3.06821 29.7863L5.38005 33.4483L7.00714 36.0242L6.49197 36.5951C5.28346 37.9432 4.20803 39.3384 2.91795 40.6156C1.90692 41.6202 0.447264 42.8223 0.0759101 44.2626C-0.181677 45.2672 0.226169 46.3405 1.14919 46.6367C1.89404 47.124 3.0403 46.9222 3.90107 46.2525C5.61832 44.9152 6.61432 42.921 7.74341 41.1136C8.09759 40.5448 8.48397 39.9996 8.88323 39.4608C9.07642 39.8643 9.27176 40.2679 9.47354 40.6672C10.3043 42.3007 11.238 43.9814 12.4959 45.3187C13.4232 46.3105 15.0975 46.2997 15.5011 44.8744C15.5902 44.6573 15.6247 44.4216 15.6015 44.1881C15.5783 43.9546 15.4981 43.7303 15.368 43.535L11.0255 36.6381C11.3604 36.1787 11.6845 35.715 11.985 35.2342C12.1798 34.918 12.3568 34.5912 12.5152 34.2554ZM15.1791 29.2024C15.1674 29.2274 15.1545 29.2517 15.1404 29.2754C15.1533 29.2475 15.1684 29.2239 15.1791 29.2024ZM4.41195 28.2257H4.42483C4.46342 28.2228 4.50216 28.2228 4.54075 28.2257C4.49718 28.222 4.45338 28.222 4.40981 28.2257H4.41195Z" fill="#FAFAFA"/>
<path d="M12.5152 61.7083C12.7789 61.3783 13.0023 61.018 13.1806 60.6351C14.0393 59.4988 14.8814 58.3683 15.7071 57.2435C15.8687 57.0359 15.968 56.7867 15.9935 56.5249C16.0189 56.263 15.9695 55.9994 15.851 55.7645C15.7091 55.5042 15.4996 55.287 15.2446 55.1359C14.9896 54.9848 14.6985 54.9053 14.402 54.9059C14.155 54.905 13.9112 54.9629 13.691 55.0749C13.4708 55.1869 13.2804 55.3497 13.1356 55.5499C11.8197 57.3487 10.4524 59.1668 9.0571 60.9656L5.69989 55.6443C5.56516 55.4238 5.37584 55.2418 5.15024 55.1158C4.92463 54.9899 4.67035 54.9242 4.41195 54.9252C4.1259 54.9273 3.84542 55.0045 3.59865 55.1492C3.35187 55.2939 3.14748 55.5009 3.00596 55.7495C2.87827 55.9795 2.81651 56.2403 2.8275 56.5031C2.83848 56.7659 2.92177 57.0207 3.06821 57.2392L5.38005 60.9012L7.00714 63.4771L6.49197 64.0481C5.28346 65.3961 4.20803 66.7914 2.91795 68.0686C1.90692 69.0732 0.447264 70.2752 0.0759101 71.7156C-0.181677 72.7202 0.226169 73.7934 1.14919 74.0897C1.89404 74.5769 3.0403 74.3752 3.90107 73.7054C5.61832 72.3681 6.61432 70.374 7.74341 68.5666C8.09759 67.9977 8.48397 67.4525 8.88323 66.9137C9.07642 67.3173 9.27176 67.7208 9.47354 68.1201C10.3043 69.7536 11.238 71.4344 12.4959 72.7717C13.4232 73.7634 15.0975 73.7527 15.5011 72.3273C15.5902 72.1102 15.6247 71.8746 15.6015 71.641C15.5783 71.4075 15.4981 71.1832 15.368 70.9879L11.0255 64.091C11.3604 63.6316 11.6845 63.168 11.985 62.6872C12.1798 62.371 12.3568 62.0442 12.5152 61.7083ZM15.1791 56.6553C15.1674 56.6803 15.1545 56.7047 15.1404 56.7283C15.1533 56.7004 15.1684 56.6768 15.1791 56.6553ZM4.41195 55.6787H4.42483C4.46342 55.6758 4.50216 55.6758 4.54075 55.6787C4.49718 55.675 4.45338 55.675 4.40981 55.6787H4.41195Z" fill="#FAFAFA"/>
<path d="M12.5152 89.1613C12.7789 88.8312 13.0023 88.4709 13.1806 88.088C14.0393 86.9518 14.8814 85.8212 15.7071 84.6964C15.8687 84.4888 15.968 84.2396 15.9935 83.9778C16.0189 83.716 15.9695 83.4523 15.851 83.2175C15.7091 82.9572 15.4996 82.74 15.2446 82.5889C14.9896 82.4377 14.6985 82.3583 14.402 82.3588C14.155 82.3579 13.9112 82.4159 13.691 82.5279C13.4708 82.6398 13.2804 82.8026 13.1356 83.0028C11.8197 84.8016 10.4524 86.6198 9.0571 88.4186L5.69989 83.0973C5.56516 82.8768 5.37584 82.6947 5.15024 82.5688C4.92463 82.4428 4.67035 82.3772 4.41195 82.3782C4.1259 82.3802 3.84542 82.4575 3.59865 82.6021C3.35187 82.7468 3.14748 82.9538 3.00596 83.2024C2.87827 83.4324 2.81651 83.6932 2.8275 83.956C2.83848 84.2189 2.92177 84.4736 3.06821 84.6921L5.38005 88.3542L7.00714 90.93L6.49197 91.501C5.28346 92.8491 4.20803 94.2443 2.91795 95.5215C1.90692 96.5261 0.447264 97.7282 0.0759101 99.1685C-0.181677 100.173 0.226169 101.246 1.14919 101.543C1.89404 102.03 3.0403 101.828 3.90107 101.158C5.61832 99.8211 6.61432 97.8269 7.74341 96.0195C8.09759 95.4507 8.48397 94.9055 8.88323 94.3667C9.07642 94.7702 9.27176 95.1738 9.47354 95.573C10.3043 97.2066 11.238 98.8873 12.4959 100.225C13.4232 101.216 15.0975 101.206 15.5011 99.7803C15.5902 99.5632 15.6247 99.3275 15.6015 99.094C15.5783 98.8604 15.4981 98.6362 15.368 98.4408L11.0255 91.544C11.3604 91.0846 11.6845 90.6209 11.985 90.1401C12.1798 89.8239 12.3568 89.4971 12.5152 89.1613ZM15.1791 84.1083C15.1674 84.1332 15.1545 84.1576 15.1404 84.1813C15.1533 84.1534 15.1684 84.1297 15.1791 84.1083ZM4.41195 83.1316H4.42483C4.46342 83.1287 4.50216 83.1287 4.54075 83.1316C4.49718 83.1279 4.45338 83.1279 4.40981 83.1316H4.41195Z" fill="#FAFAFA"/>
</g>
</svg>
